<?xml version="1.0" encoding="UTF-8" standalone="no"?>
<!-- Created with Inkscape (http://www.inkscape.org/) -->

<svg
        width="16"
        height="16"
        viewBox="0 0 16 16"
        version="1.1"
        id="svg1"
        xml:space="preserve"
        xmlns="http://www.w3.org/2000/svg"
>
    <defs
            id="defs1"/>
    <g
            id="layer1"
            transform="matrix(1.1054727,0,0,1.1446957,-0.72313953,-1.3793153)"><path
       style="fill:#ffffff"
       d="m 0.75570134,15.046599 c 0,-0.07681 0.38136436,-0.616731 1.17605846,-1.665012 C 3.9960723,10.658553 4.8809411,9.4803801 5.0449703,9.236453 5.1447812,9.0880245 5.4165458,8.7203415 5.6488916,8.4193796 7.0686384,6.5803547 8.4363952,4.7189708 8.5396688,4.4853133 8.5793779,4.3954709 8.5935578,4.3000526 8.5711796,4.2732726 8.4945292,4.1815452 4.9450677,4.2184795 4.7945713,4.3125705 4.6745906,4.3875831 4.0602017,5.052488 2.6822994,6.5985166 2.5193318,6.7813689 2.3224489,6.9842395 2.2447817,7.0493402 2.1077156,7.1642292 2.1048451,7.1612858 2.1470333,6.9491112 2.1709388,6.8288846 2.3698561,6.3661928 2.5890716,5.9209074 3.3310624,4.4137254 3.7012223,3.6478808 3.9120833,3.1836545 4.0276591,2.9292057 4.1816511,2.6429507 4.2542877,2.5475324 L 4.3863542,2.3740446 H 8.391382 c 2.202765,0 4.02236,0.020741 4.043543,0.046091 0.07981,0.095515 -0.04875,0.2902108 -0.470839,0.7129957 C 11.165324,3.9332203 8.9920549,6.2392865 7.5558905,7.8106888 7.1292003,8.2775587 6.5046435,8.953469 6.1679865,9.3127116 5.8313294,9.6719542 5.2080237,10.348246 4.7828626,10.815581 4.3577015,11.282917 3.8647969,11.824591 3.6875192,12.0193 3.5102414,12.21401 2.9592746,12.825922 2.4631484,13.379104 1.1264534,14.869525 0.75570134,15.231602 0.75570134,15.046599 Z M 3.2953867,14.100538 C 3.2068994,13.994614 3.3583996,13.793805 4.1544875,12.961824 6.2040334,10.819871 6.8236072,10.16069 7.6177057,9.2772169 8.0783943,8.7646785 8.9769472,7.7911596 9.6144901,7.1138416 10.252033,6.4365237 11.078582,5.5353788 11.451266,5.1112974 11.823949,4.6872159 12.258199,4.20145 12.416265,4.0318174 12.574331,3.8621848 12.936552,3.4606201 13.2212,3.1394512 13.505848,2.8182824 13.825726,2.4576877 13.932038,2.3381296 14.670981,1.5071231 15.26887,1.059694 14.853957,1.6482125 14.201124,2.5742012 13.11197,4.0301323 12.063082,5.3789247 11.814783,5.6982192 11.292884,6.3907752 10.903306,6.917938 10.513729,7.4451008 9.7600686,8.4489794 9.2285048,9.1487795 7.3711445,11.593982 6.9834343,12.165644 7.0932728,12.297088 c 0.024294,0.02907 0.8755754,0.0434 1.8917357,0.03183 1.7346875,-0.01975 1.8576115,-0.03045 2.0120095,-0.175152 0.234359,-0.219644 0.626728,-0.654637 1.567713,-1.738017 0.744881,-0.8575995 1.012932,-1.0885862 1.012932,-0.8728707 0,0.041308 -0.284977,0.6571907 -0.633282,1.3686267 -0.348305,0.711436 -0.755181,1.553752 -0.904169,1.871813 -0.352366,0.752234 -0.39949,0.842971 -0.575342,1.107824 l -0.147617,0.222329 -3.9975137,0.0096 c -2.1986326,0.0053 -4.0095913,-0.0049 -4.0243526,-0.02253 z"
       id="path1" />
        <path
                style="fill:#666666;fill-rule:evenodd;stroke:#000000;stroke-width:0.013244"
                d="m 3.3244072,14.031909 c 0,-0.127576 0.2353746,-0.393425 1.9658458,-2.220367 0.94372,-0.996331 2.2472325,-2.3906008 2.8966946,-3.0983779 0.649462,-0.707777 1.5281896,-1.6617596 1.9527274,-2.1199619 0.424538,-0.458202 1.584374,-1.7370264 2.577412,-2.841832 1.624959,-1.807848 2.189868,-2.3926214 2.188752,-2.2657158 -5.76e-4,0.065608 -1.288268,1.8152888 -2.517364,3.4205272 -1.842519,2.4063872 -4.6640874,6.1851924 -4.9974081,6.6928114 -0.1723132,0.262418 -0.3132967,0.53597 -0.3132967,0.607891 v 0.130767 l 1.8728451,-0.01599 c 1.8011897,-0.01538 1.8786337,-0.02027 2.0241347,-0.127817 0.08321,-0.0615 0.450365,-0.447564 0.815902,-0.857911 1.064518,-1.195018 1.672063,-1.8452855 1.724052,-1.8452855 0.0273,0 0.02478,0.062045 -0.0058,0.1424074 -0.118282,0.3111039 -1.894633,3.9595371 -2.047738,4.2058311 l -0.163512,0.263036 H 7.311043 c -3.2442961,0 -3.9866358,-0.01304 -3.9866358,-0.07001 z"
                id="path2"/>
        <path
                style="fill:#666666;fill-rule:evenodd;stroke:#000000;stroke-width:0.013244"
                d="m 3.3780267,14.017967 c 0,-0.06634 0.1061736,-0.221757 0.2765837,-0.404864 0.09855,-0.105893 0.3480832,-0.379113 0.5545181,-0.607155 0.206435,-0.228043 0.5321733,-0.576112 0.7238629,-0.773487 C 5.2919865,11.862819 5.8776336,11.24272 6.6143922,10.452149 6.8461309,10.203485 7.1839336,9.8416792 7.3650648,9.6481381 7.7708367,9.2145646 8.3369251,8.6038013 8.7286232,8.1769694 8.8910028,8.0000252 9.159047,7.709073 9.324277,7.5304092 9.489507,7.3517454 9.7661964,7.0501356 9.9391422,6.8601656 10.112088,6.6701957 10.377504,6.3792179 10.528956,6.2135482 11.560989,5.0846321 11.844439,4.7730007 12.136482,4.446197 c 0.340871,-0.3814428 0.639687,-0.7118292 0.995033,-1.1001592 0.159309,-0.1740957 0.410003,-0.4492458 0.5571,-0.6114448 0.484832,-0.5346093 0.915391,-0.9635139 0.941261,-0.9376439 0.014,0.014001 -0.01461,0.069729 -0.06358,0.1238403 -0.04897,0.054112 -0.08904,0.1246352 -0.08904,0.1567189 0,0.032084 -0.01828,0.066377 -0.04061,0.076207 -0.06578,0.028951 -0.388342,0.4574011 -0.388342,0.5158327 0,0.029464 -0.03619,0.06746 -0.08043,0.084435 -0.04424,0.016975 -0.08043,0.057473 -0.08043,0.089996 0,0.032523 -0.03016,0.092765 -0.06702,0.1338707 -0.111546,0.1243837 -0.164816,0.1933361 -0.536994,0.695084 -0.196876,0.2654164 -0.394864,0.5207925 -0.439974,0.5675025 -0.04511,0.04671 -0.08202,0.1104825 -0.08202,0.1417168 0,0.031234 -0.03619,0.070678 -0.08043,0.087653 -0.04424,0.016975 -0.08043,0.067814 -0.08043,0.1129757 0,0.045162 -0.01898,0.082112 -0.04218,0.082112 -0.0543,0 -0.4404,0.5158702 -0.4404,0.5884215 0,0.030257 -0.02085,0.055012 -0.04633,0.055012 -0.02548,0 -0.115892,0.1025472 -0.200917,0.2278827 -0.08502,0.1253356 -0.184821,0.2471783 -0.22177,0.2707617 -0.03695,0.023583 -0.06718,0.075862 -0.06718,0.1161756 0,0.040313 -0.02288,0.081339 -0.05085,0.09117 -0.04245,0.014922 -1.079414,1.3735675 -1.343257,1.7599607 -0.04424,0.064782 -0.116623,0.1615431 -0.160859,0.2150232 C 9.982605,8.0427811 9.9102188,8.1392964 9.8659828,8.2037791 9.8217467,8.2682619 9.7493604,8.364777 9.7051243,8.418257 9.6608883,8.4717371 9.588502,8.5682521 9.5442659,8.6327349 9.5000299,8.6972177 9.4220586,8.8020153 9.3709968,8.8656188 9.3199344,8.9292222 9.2588023,9.0053902 9.2351475,9.034881 8.9475933,9.3933775 8.525496,9.9780957 8.525496,10.017939 c 0,0.02808 -0.036193,0.06494 -0.080429,0.08191 -0.044236,0.01698 -0.080429,0.06781 -0.080429,0.112976 0,0.04516 -0.019484,0.08211 -0.043298,0.08211 -0.052518,0 -0.385658,0.464531 -0.385658,0.537762 0,0.02863 -0.021115,0.05205 -0.046922,0.05205 -0.057162,0 -0.5965112,0.771503 -0.5965112,0.853269 0,0.03204 -0.02815,0.05826 -0.062556,0.05826 -0.034406,0 -0.047619,0.01494 -0.029363,0.03319 0.018256,0.01826 -0.00207,0.06846 -0.045176,0.111562 -0.043103,0.0431 -0.065689,0.09888 -0.050192,0.12396 0.015497,0.02507 0.00365,0.06075 -0.026317,0.07927 -0.029972,0.01852 -0.054494,0.08381 -0.054494,0.145084 0,0.110358 0.010453,0.111071 1.112604,0.0758 0.6119322,-0.01958 1.4383423,-0.03684 1.8364669,-0.03835 0.3981243,-0.0015 0.8006233,-0.0263 0.8944413,-0.0551 0.120136,-0.03687 0.387286,-0.293288 0.903411,-0.86711 0.403058,-0.448115 0.857467,-0.947463 1.009799,-1.109661 0.152332,-0.162199 0.354311,-0.3853904 0.448843,-0.4959806 0.18497,-0.2163921 0.263021,-0.2577225 0.202518,-0.1072389 -0.02075,0.051609 -0.04297,0.1179628 -0.04938,0.1474535 -0.0064,0.029491 -0.133979,0.294907 -0.283488,0.589814 -0.149509,0.294907 -0.274273,0.554477 -0.277252,0.576822 -0.003,0.02235 -0.344478,0.716047 -0.758886,1.54156 l -0.753471,1.500933 H 7.3438916 c -2.1812257,0 -3.9658649,-0.01365 -3.9658649,-0.03033 z"
                id="path3"/>
        <path
                style="fill:#00ffff;fill-rule:evenodd;stroke:#000000;stroke-width:0.013244"
                d="M 0.86008838,14.902146 C 0.91591769,14.797828 4.0642743,10.586076 6.3281695,7.5871552 8.3296203,4.9358872 8.6994976,4.3883044 8.5736752,4.26281 8.5110445,4.2003429 5.3708991,4.1946875 4.9745363,4.2563279 4.7274097,4.2947598 4.697718,4.3216991 3.7680982,5.3509274 2.5559061,6.6930057 2.1866692,7.0839142 2.1581372,7.0553822 2.1455783,7.0428233 2.2320354,6.8074675 2.3502642,6.5323692 2.6647741,5.800558 4.2296093,2.6165131 4.3287203,2.5067103 4.4079359,2.418949 4.6708294,2.4128762 8.390821,2.4128762 c 2.187572,0 3.99264,0.015237 4.011264,0.03386 0.06968,0.069684 -0.110603,0.2873359 -1.060102,1.2798173 C 9.2433492,5.9201878 5.627698,9.823986 3.2049932,12.512016 1.2033475,14.732874 0.64741616,15.299527 0.86008838,14.902146 Z"
                id="path4"/>
        <path
                style="fill:#008080;fill-rule:evenodd;stroke:#000000;stroke-width:0.013244"
                d="m 3.4784533,13.900172 c 0.062406,-0.116607 0.6223793,-0.731457 1.7207757,-1.88941 1.9566973,-2.0627929 4.1713163,-4.4625876 7.610093,-8.2464111 0.865554,-0.9524047 1.587139,-1.7182412 1.603522,-1.7018589 0.01638,0.016382 -0.03169,0.095888 -0.106818,0.1766802 -0.07513,0.080792 -0.181373,0.2192806 -0.236091,0.3077527 -0.05472,0.088472 -0.130228,0.180154 -0.1678,0.2037374 -0.03757,0.023583 -0.06831,0.064757 -0.06831,0.091497 0,0.02674 -0.24732,0.3734494 -0.5496,0.7704655 -0.30228,0.3970161 -0.585793,0.7743102 -0.630029,0.8384314 -0.04424,0.064121 -0.13668,0.1806914 -0.20543,0.2590449 -0.06875,0.078353 -0.189169,0.238976 -0.267596,0.3569389 -0.07843,0.1179628 -0.155508,0.2265422 -0.171291,0.2412876 -0.04514,0.042169 -0.392639,0.4894663 -0.481692,0.6200248 C 11.48395,5.993206 10.90486,6.762106 10.241319,7.6370192 9.5777781,8.5119324 8.9188704,9.3894649 8.7770801,9.5870913 8.6352899,9.7847176 8.4784529,10.003375 8.4285537,10.072997 c -0.049899,0.06962 -0.1205045,0.157999 -0.1569006,0.196393 -0.067333,0.07103 -0.3317403,0.43844 -0.8198684,1.139256 -0.1493427,0.214414 -0.3201409,0.503243 -0.3795515,0.641843 -0.1813133,0.422987 -0.361381,0.403918 2.8444741,0.301218 l 0.9890657,-0.03168 0.317361,-0.302084 c 0.174549,-0.166146 0.716759,-0.742412 1.204911,-1.280593 0.488152,-0.538179 0.899619,-0.9664392 0.914371,-0.951688 0.01475,0.014752 -0.44066,0.967817 -1.012024,2.117923 l -1.038844,2.091102 H 7.3597103 c -3.7387036,0 -3.9293527,-0.0046 -3.881257,-0.09451 z"
                id="path5"/></g></svg>
